<?xml version="1.0" standalone="no"?>
<!DOCTYPE svg PUBLIC "-//W3C//DTD SVG 20010904//EN"
 "http://www.w3.org/TR/2001/REC-SVG-20010904/DTD/svg10.dtd">
<svg version="1.0" xmlns="http://www.w3.org/2000/svg"
 width="500.000000pt" height="500.000000pt" viewBox="0 0 500.000000 500.000000"
 preserveAspectRatio="xMidYMid meet">
<metadata>
Created by potrace 1.15, written by Peter Selinger 2001-2017
</metadata>
<g transform="translate(0.000000,500.000000) scale(0.100000,-0.100000)"
fill="#000000" stroke="none">
<path d="M1173 4464 c-53 -26 -63 -63 -63 -228 l0 -146 -446 0 c-496 0 -498 0
-528 -65 -15 -30 -16 -178 -14 -1512 l3 -1478 28 -47 c18 -31 44 -57 75 -75
l47 -28 715 -5 715 -5 60 -23 c81 -31 275 -78 410 -99 153 -24 507 -24 660 0
135 21 329 68 410 99 l60 23 700 5 700 5 47 28 c31 18 57 44 75 75 l28 47 3
1478 c2 1334 1 1482 -14 1512 -30 65 -34 65 -508 65 l-426 0 0 146 c0 112 -4
154 -16 179 -33 69 59 65 -1386 65 -1163 0 -1306 -2 -1335 -16z m2653 -19 c53
-22 64 -59 64 -222 0 -117 -2 -134 -13 -118 -13 17 -14 17 -20 -4 -11 -44 20
-75 63 -64 22 6 22 7 5 20 -29 20 801 19 851 -2 68 -28 64 71 64 -1523 0
-1584 3 -1502 -62 -1569 -61 -64 -57 -63 -802 -61 -374 1 -625 4 -566 8 58 4
109 8 114 9 4 0 6 8 2 16 -4 13 70 15 589 17 l595 3 37 38 38 37 3 1481 c1
974 6 1478 12 1474 16 -10 11 17 -7 37 -17 19 -49 26 -38 8 4 -7 -150 -10
-454 -10 l-461 0 0 181 c0 117 3 178 10 174 16 -10 11 17 -7 37 -17 19 -49 26
-38 8 4 -7 -430 -10 -1295 -10 -865 0 -1299 3 -1295 10 10 16 -17 11 -37 -7
-19 -17 -26 -49 -8 -38 7 4 10 -57 10 -174 l0 -181 -481 0 c-317 0 -478 3
-474 10 10 16 -17 11 -37 -7 -19 -17 -26 -49 -8 -38 6 4 11 -500 12 -1474 l3
-1481 38 -37 37 -38 610 -3 c533 -2 608 -4 604 -17 -4 -8 -2 -16 2 -16 5 -1
56 -5 114 -9 58 -3 -201 -7 -581 -8 -761 -2 -755 -3 -817 61 -65 67 -62 -15
-62 1569 0 1594 -4 1495 64 1523 50 21 920 22 891 2 -17 -13 -17 -14 4 -20 44
-11 75 20 64 63 -6 22 -7 22 -20 5 -20 -28 -19 242 2 291 28 67 -55 63 1363
64 1104 0 1288 -2 1318 -15z m-6 -250 l5 -190 470 -5 470 -5 3 -1463 c2 -1617
7 -1501 -61 -1542 -31 -19 -54 -20 -602 -20 l-569 0 89 51 c260 148 467 337
635 578 22 31 22 33 2 22 -11 -6 -51 -50 -88 -98 -136 -175 -330 -344 -531
-464 -64 -39 -99 -53 -128 -54 -22 0 -51 -4 -65 -8 -14 -5 21 16 77 46 94 51
243 144 243 152 0 10 -75 -26 -165 -80 -107 -63 -279 -145 -307 -145 -19 0
-158 -48 -173 -60 -12 -10 -209 -54 -320 -72 -105 -16 -493 -16 -600 1 -126
20 -310 62 -313 72 -2 5 -12 9 -23 9 -11 0 -46 11 -79 25 -33 14 -67 25 -77
25 -53 0 -337 152 -468 251 -62 46 -135 87 -135 75 0 -6 176 -137 230 -171 25
-16 90 -53 145 -83 55 -29 89 -50 75 -45 -14 4 -43 8 -65 8 -72 2 -279 140
-482 320 -136 122 -171 141 -73 40 133 -137 280 -250 445 -344 l89 -51 -584 0
c-563 0 -586 1 -617 20 -68 41 -63 -75 -61 1542 l3 1463 490 5 490 5 3 180 c1
99 4 186 7 193 3 10 270 12 1307 10 l1303 -3 5 -190z m-1992 -3294 c65 -26
263 -69 392 -87 135 -18 435 -18 570 0 129 18 327 61 392 87 66 26 73 23 18
-6 -52 -28 -36 -32 39 -9 29 8 55 14 57 11 7 -7 -229 -76 -331 -96 -168 -34
-272 -43 -460 -43 -188 0 -292 9 -460 43 -101 20 -338 89 -331 96 2 2 29 -3
61 -12 68 -20 81 -14 28 14 -48 26 -38 27 25 2z"/>
<path d="M2315 4244 c-537 -56 -975 -247 -1318 -574 -114 -108 -232 -254 -292
-360 -21 -38 45 35 118 130 329 426 829 698 1415 771 125 15 409 15 534 0 537
-67 1035 -318 1334 -673 101 -120 142 -164 148 -158 10 11 -143 197 -235 285
-314 299 -707 487 -1174 561 -96 15 -446 27 -530 18z"/>
<path d="M2210 4165 c-433 -60 -809 -228 -1125 -503 -80 -69 -186 -185 -189
-207 -1 -7 -47 -49 -101 -92 -112 -89 -238 -204 -368 -338 -96 -99 -104 -123
-54 -153 31 -19 22 -22 128 49 86 56 82 57 157 -23 74 -78 190 -172 294 -237
38 -24 68 -45 68 -47 0 -2 -15 -11 -32 -20 -42 -21 -98 -74 -98 -92 0 -20 100
-132 118 -132 8 0 33 20 55 46 47 54 128 110 219 152 68 33 226 82 259 82 23
0 27 45 5 53 -20 8 -247 181 -269 205 -11 12 -16 25 -13 30 11 19 153 71 220
82 106 17 224 -9 248 -53 9 -18 3 -27 -46 -73 l-57 -52 14 -33 c7 -19 21 -35
30 -37 9 -2 57 13 107 32 113 45 273 90 376 107 98 15 106 24 89 89 -21 81
-85 154 -170 198 -175 88 -510 70 -725 -38 -33 -17 -60 -27 -60 -22 0 21 49
144 80 201 42 77 135 174 213 220 68 40 86 37 25 -5 -88 -61 -124 -168 -77
-228 19 -24 26 -26 94 -26 80 0 168 23 326 86 213 84 282 151 245 238 -15 36
-76 87 -133 111 -103 43 -270 37 -428 -16 -276 -94 -457 -272 -511 -504 -34
-146 -27 -138 -58 -71 -40 89 -56 165 -56 265 0 103 -7 111 -66 66 -59 -45
-44 -26 59 74 191 185 336 290 541 391 713 351 1613 274 2235 -191 47 -35 135
-112 197 -171 62 -59 118 -108 124 -108 17 0 -94 122 -175 192 -319 278 -695
445 -1135 504 -131 17 -451 17 -580 -1z"/>
<path d="M2560 3881 c-190 -15 -329 -33 -347 -47 -16 -12 -17 -15 -3 -40 8
-14 34 -40 58 -57 l43 -31 69 12 c38 6 76 9 84 6 51 -20 55 -216 7 -453 -17
-85 -35 -159 -40 -164 -5 -5 -42 -19 -82 -31 l-74 -23 -3 -71 c-3 -85 -16 -80
147 -52 168 30 355 27 511 -5 66 -14 126 -28 133 -30 25 -9 38 14 49 83 13 92
8 100 -80 104 -64 3 -67 4 -86 38 -44 74 -9 358 65 529 27 65 84 108 151 117
59 8 78 25 78 68 0 31 -3 34 -38 39 -64 11 -532 16 -642 8z"/>
<path d="M3299 3813 c-6 -16 -13 -51 -16 -78 -6 -58 -2 -63 69 -90 26 -9 55
-26 64 -36 17 -18 17 -24 1 -92 -32 -143 -39 -204 -39 -353 l0 -151 -41 14
c-27 9 -58 12 -88 8 -53 -7 -54 -9 -65 -136 l-7 -68 54 6 c106 11 248 -44 467
-179 187 -115 301 -175 387 -204 223 -74 393 33 461 291 21 76 18 205 -6 272
-47 135 -159 266 -313 366 -83 54 -155 91 -571 291 -98 47 -207 104 -242 126
-76 48 -100 50 -115 13z m661 -567 c36 -21 103 -70 149 -109 137 -117 211
-222 211 -302 0 -42 -39 -90 -79 -98 -74 -15 -229 52 -456 199 -82 53 -86 60
-74 134 11 72 60 194 91 227 20 21 21 21 57 5 20 -9 65 -34 101 -56z"/>
<path d="M541 2936 c-7 -8 -24 -70 -39 -138 -22 -106 -26 -148 -26 -303 -1
-207 19 -330 80 -507 34 -100 116 -275 150 -321 l16 -22 -7 25 c-4 14 -31 77
-60 140 -68 148 -98 233 -124 352 -48 223 -47 447 4 672 14 60 23 111 21 113
-2 2 -9 -3 -15 -11z"/>
<path d="M587 2873 c-37 -138 -42 -180 -42 -383 0 -220 9 -287 62 -447 36
-110 84 -223 96 -223 13 0 4 31 -38 133 -77 185 -112 396 -101 607 5 107 14
167 52 343 12 53 -13 27 -29 -30z"/>
<path d="M4520 2645 c-2 -5 -4 -75 -5 -155 -4 -227 -43 -415 -126 -602 -50
-115 -54 -128 -40 -128 28 0 130 275 161 437 25 125 37 370 22 423 -6 19 -11
31 -12 25z"/>
<path d="M4456 2528 c-3 -13 -7 -70 -11 -127 -10 -190 -62 -386 -146 -553 -44
-88 -45 -90 -24 -82 35 14 136 270 171 434 16 75 32 350 21 350 -4 0 -9 -10
-11 -22z"/>
<path d="M1060 2156 c-77 -16 -148 -58 -219 -128 -227 -224 -147 -500 196
-680 161 -84 251 -98 344 -50 67 34 119 98 119 148 0 43 -16 44 -95 8 -72 -33
-137 -29 -229 14 -105 49 -134 117 -102 240 25 98 90 226 133 261 69 57 157
49 231 -22 30 -28 69 -87 59 -87 -3 0 -26 10 -53 22 -67 29 -153 30 -191 2
-23 -18 -28 -29 -27 -60 2 -34 10 -46 67 -101 85 -80 210 -143 284 -143 64 0
96 24 113 85 36 129 -35 254 -214 374 -101 68 -184 106 -267 120 -77 13 -78
13 -149 -3z"/>
<path d="M3869 2107 c-95 -35 -168 -121 -203 -240 -14 -45 -28 -94 -32 -110
-6 -27 -7 -26 -40 30 -89 151 -179 167 -296 55 -71 -67 -131 -156 -161 -237
-21 -58 -22 -59 -28 -30 -4 17 -7 69 -8 118 -1 102 -1 102 -116 63 -58 -19
-176 -49 -292 -72 -26 -5 -30 -37 -11 -79 10 -23 17 -25 69 -25 64 0 60 5 74
-84 10 -63 63 -216 98 -281 l33 -61 -60 -11 c-32 -7 -63 -16 -67 -20 -13 -13
12 -131 28 -138 8 -2 28 2 45 11 64 33 260 74 355 74 85 0 90 14 34 98 -68
101 -74 117 -69 202 5 80 36 164 69 183 49 30 108 -40 150 -176 21 -68 22
-144 3 -221 l-7 -29 55 6 c62 8 213 52 336 98 l82 32 0 45 0 45 -42 -6 c-24
-4 -52 -7 -62 -9 -14 -2 -27 11 -49 47 -28 48 -29 53 -25 150 6 119 31 215 65
247 l24 23 19 -25 c35 -46 53 -150 48 -281 -4 -105 -2 -119 12 -119 22 0 198
122 319 219 52 42 105 84 117 94 31 24 32 57 2 57 -13 0 -32 3 -43 6 -13 3
-42 -9 -83 -35 -34 -23 -64 -41 -66 -41 -1 0 6 33 16 73 38 142 4 276 -84 334
-32 22 -55 28 -107 30 -38 2 -81 -3 -102 -10z"/>
<path d="M2255 1749 c-22 -5 -80 -8 -130 -8 -49 0 -96 0 -102 0 -7 -1 -26 -30
-42 -65 -59 -131 -170 -267 -273 -336 -68 -45 -87 -49 -113 -20 -23 25 -25 25
-96 -2 -39 -15 -59 -29 -59 -40 0 -11 37 -37 108 -75 134 -74 378 -193 395
-193 14 0 47 91 47 126 0 16 -13 23 -71 37 -40 9 -74 19 -77 22 -3 3 23 34 58
68 l63 64 131 -35 c72 -19 135 -39 139 -46 10 -14 0 -114 -19 -190 -13 -49
-13 -61 -2 -68 7 -5 83 -7 177 -4 90 3 202 6 249 6 79 0 85 2 110 28 15 16 34
41 42 56 18 35 4 46 -60 46 -25 0 -56 6 -70 13 -28 14 -81 108 -161 282 -28
61 -76 163 -106 228 -61 127 -56 124 -138 106z m-2 -230 c53 -24 26 -81 -44
-94 -50 -9 -149 11 -173 35 -19 18 -19 21 -5 36 42 42 155 54 222 23z"/>
</g>
</svg>
